<svg width="600" height="144" viewBox="0 0 600 144" fill="none" xmlns="http://www.w3.org/2000/svg">
<path d="M114.87 117.56C111.094 117.56 107.83 116.92 105.078 115.64C102.39 114.424 100.342 112.6 98.934 110.168C97.526 107.8 96.918 104.952 97.11 101.624L98.07 85.88C98.262 82.488 97.75 80.056 96.534 78.584C95.318 77.048 92.63 76.28 88.47 76.28H77.91V68.6H88.47C92.63 68.6 95.318 67.864 96.534 66.392C97.75 64.856 98.262 62.392 98.07 59L97.11 43.256C96.918 39.864 97.526 36.984 98.934 34.616C100.342 32.248 102.39 30.456 105.078 29.24C107.83 27.96 111.094 27.32 114.87 27.32H119.19V35H114.87C111.862 35 109.558 35.704 107.958 37.112C106.358 38.456 105.622 40.504 105.75 43.256L106.71 59C106.966 63.16 105.974 66.488 103.734 68.984C101.494 71.416 98.326 72.632 94.23 72.632V72.152C98.262 72.152 101.398 73.4 103.638 75.896C105.942 78.392 106.966 81.72 106.71 85.88L105.75 101.624C105.622 104.376 106.358 106.424 107.958 107.768C109.558 109.176 111.862 109.88 114.87 109.88H119.19V117.56H114.87ZM142.769 124.28V116.408H159.569C162.257 116.408 164.209 115.8 165.425 114.584C166.705 113.368 167.345 111.48 167.345 108.92V102.2L167.537 92.6H165.809L167.441 91.16C167.441 95 166.161 98.04 163.601 100.28C161.041 102.52 157.617 103.64 153.329 103.64C147.889 103.64 143.601 101.88 140.465 98.36C137.329 94.776 135.761 89.976 135.761 83.96V72.824C135.761 66.808 137.329 62.04 140.465 58.52C143.601 55 147.889 53.24 153.329 53.24C157.617 53.24 161.041 54.36 163.601 56.6C166.161 58.84 167.441 61.88 167.441 65.72L165.809 64.28H167.441V54.2H175.985V108.92C175.985 113.656 174.513 117.4 171.569 120.152C168.689 122.904 164.657 124.28 159.473 124.28H142.769ZM155.921 96.152C159.505 96.152 162.321 95.032 164.369 92.792C166.417 90.552 167.441 87.448 167.441 83.48V73.4C167.441 69.432 166.417 66.328 164.369 64.088C162.321 61.848 159.505 60.728 155.921 60.728C152.273 60.728 149.425 61.816 147.377 63.992C145.393 66.168 144.401 69.304 144.401 73.4V83.48C144.401 87.576 145.393 90.712 147.377 92.888C149.425 95.064 152.273 96.152 155.921 96.152ZM200.331 124.28V116.408H217.131C219.819 116.408 221.771 115.8 222.987 114.584C224.267 113.368 224.907 111.48 224.907 108.92V102.2L225.099 92.6H223.371L225.003 91.16C225.003 95 223.723 98.04 221.163 100.28C218.603 102.52 215.179 103.64 210.891 103.64C205.451 103.64 201.163 101.88 198.027 98.36C194.891 94.776 193.323 89.976 193.323 83.96V72.824C193.323 66.808 194.891 62.04 198.027 58.52C201.163 55 205.451 53.24 210.891 53.24C215.179 53.24 218.603 54.36 221.163 56.6C223.723 58.84 225.003 61.88 225.003 65.72L223.371 64.28H225.003V54.2H233.547V108.92C233.547 113.656 232.075 117.4 229.131 120.152C226.251 122.904 222.219 124.28 217.035 124.28H200.331ZM213.483 96.152C217.067 96.152 219.883 95.032 221.931 92.792C223.979 90.552 225.003 87.448 225.003 83.48V73.4C225.003 69.432 223.979 66.328 221.931 64.088C219.883 61.848 217.067 60.728 213.483 60.728C209.835 60.728 206.987 61.816 204.939 63.992C202.955 66.168 201.963 69.304 201.963 73.4V83.48C201.963 87.576 202.955 90.712 204.939 92.888C206.987 95.064 209.835 96.152 213.483 96.152ZM250.598 117.56V109.88H254.918C257.926 109.88 260.23 109.176 261.83 107.768C263.43 106.424 264.166 104.376 264.038 101.624L263.078 85.88C262.822 81.72 263.814 78.392 266.054 75.896C268.358 73.4 271.526 72.152 275.558 72.152V72.632C271.462 72.632 268.294 71.416 266.054 68.984C263.814 66.488 262.822 63.16 263.078 59L264.038 43.256C264.166 40.504 263.43 38.456 261.83 37.112C260.23 35.704 257.926 35 254.918 35H250.598V27.32H254.918C258.694 27.32 261.926 27.96 264.614 29.24C267.366 30.456 269.446 32.248 270.854 34.616C272.262 36.984 272.87 39.864 272.678 43.256L271.718 59C271.526 62.392 272.038 64.856 273.254 66.392C274.47 67.864 277.158 68.6 281.318 68.6H291.878V76.28H281.318C277.222 76.28 274.534 77.048 273.254 78.584C272.038 80.056 271.526 82.488 271.718 85.88L272.678 101.624C272.87 104.952 272.262 107.8 270.854 110.168C269.446 112.6 267.366 114.424 264.614 115.64C261.926 116.92 258.694 117.56 254.918 117.56H250.598Z" fill="#0A0A0A"/>
<path d="M328.8 107.96C326.048 107.96 323.84 107.16 322.176 105.56C320.576 103.96 319.776 101.784 319.776 99.032C319.776 96.28 320.576 94.104 322.176 92.504C323.84 90.84 326.048 90.008 328.8 90.008C331.552 90.008 333.728 90.84 335.328 92.504C336.992 94.104 337.824 96.28 337.824 99.032C337.824 101.784 336.992 103.96 335.328 105.56C333.728 107.16 331.552 107.96 328.8 107.96ZM381.851 107.96C376.603 107.96 372.347 106.136 369.083 102.488C365.883 98.84 364.283 93.944 364.283 87.8V73.496C364.283 67.288 365.883 62.36 369.083 58.712C372.283 55.064 376.539 53.24 381.851 53.24C386.203 53.24 389.659 54.488 392.219 56.984C394.779 59.416 396.059 62.776 396.059 67.064L393.371 64.28H396.155L395.771 51.704V36.92H407.771V107H396.059V96.92H393.371L396.059 94.136C396.059 98.424 394.779 101.816 392.219 104.312C389.659 106.744 386.203 107.96 381.851 107.96ZM386.075 97.592C389.147 97.592 391.515 96.696 393.179 94.904C394.907 93.048 395.771 90.488 395.771 87.224V73.976C395.771 70.712 394.907 68.184 393.179 66.392C391.515 64.536 389.147 63.608 386.075 63.608C383.003 63.608 380.603 64.504 378.875 66.296C377.147 68.088 376.283 70.648 376.283 73.976V87.224C376.283 90.552 377.147 93.112 378.875 94.904C380.603 96.696 383.003 97.592 386.075 97.592ZM444.021 107.96C439.541 107.96 435.637 107.096 432.309 105.368C428.981 103.64 426.389 101.24 424.533 98.168C422.741 95.032 421.845 91.384 421.845 87.224V73.976C421.845 69.816 422.741 66.2 424.533 63.128C426.389 59.992 428.981 57.56 432.309 55.832C435.637 54.104 439.541 53.24 444.021 53.24C448.437 53.24 452.277 54.104 455.541 55.832C458.869 57.56 461.429 59.992 463.221 63.128C465.077 66.2 466.005 69.816 466.005 73.976V83.48H433.461V87.224C433.461 90.936 434.357 93.752 436.149 95.672C437.941 97.528 440.597 98.456 444.117 98.456C446.805 98.456 448.981 98.008 450.645 97.112C452.309 96.152 453.365 94.776 453.813 92.984H465.621C464.725 97.528 462.293 101.176 458.325 103.928C454.421 106.616 449.653 107.96 444.021 107.96ZM454.389 76.76V73.88C454.389 70.232 453.525 67.448 451.797 65.528C450.069 63.544 447.477 62.552 444.021 62.552C440.565 62.552 437.941 63.544 436.149 65.528C434.357 67.512 433.461 70.328 433.461 73.976V75.992L455.253 75.8L454.389 76.76ZM493.808 107L476.432 54.2H488.72L498.8 86.264C499.376 88.184 499.92 90.168 500.432 92.216C501.008 94.264 501.424 95.896 501.68 97.112C502 95.896 502.416 94.264 502.928 92.216C503.44 90.168 503.952 88.216 504.464 86.36L514.352 54.2H526.544L509.264 107H493.808Z" fill="#04773B"/>
</svg>
